<svg width="512" height="512" viewBox="0 0 512 512" fill="none" xmlns="http://www.w3.org/2000/svg">
<rect width="512" height="512" rx="95" fill="white"/>
<g clip-path="url(#clip0)">
<path d="M328.144 458.683C323.213 457.966 318.334 456.098 314.327 453.39C312.505 452.159 309.509 449.447 308.03 447.688C305.59 444.788 303.229 440.73 302.262 437.775L301.704 436.07L299.652 436.168C297.469 436.273 291.386 436.066 288.28 435.78C285.593 435.533 281.73 435.06 275.701 434.239C266.89 433.04 265.807 432.946 260.831 432.95C253.148 432.956 247.591 433.609 233.328 436.187C226.69 437.386 224.156 437.74 221.348 437.857L219.001 437.956L218.396 439.113C214.621 446.339 207.087 451.665 197.956 453.563C193.521 454.485 187.403 454.779 182.653 454.299C173.289 453.352 164.746 450.852 154.871 446.168C148.552 443.17 144.769 441.842 139.06 440.615C133.912 439.509 129.952 438.932 119.856 437.819C107.373 436.442 102.544 435.484 98.0441 433.49C94.9177 432.105 91.9425 429.665 90.4932 427.299C88.8426 424.604 88.2454 422.18 88.2476 418.185C88.25 413.945 89.0727 409.919 91.1326 404.068C92.3315 400.662 92.4763 399.727 92.3532 396.181C92.277 393.988 92.0563 392.03 91.3978 387.705C90.0935 379.141 89.9422 376.208 90.6263 372.749C91.7617 367.009 95.6289 362.059 101.357 359.014C103.276 357.994 104.98 357.299 108.384 356.149C116.173 353.517 118.485 352.394 120.822 350.107C122.25 348.709 122.807 348.041 126.228 343.617C129.658 339.182 130.665 337.987 132.566 336.094L134.065 334.602L133.788 332.427C133.408 329.43 133.27 322.577 133.523 319.24C134.45 307.039 138.068 294.207 144.513 280.262C152.942 262.025 166.157 242.171 182.893 222.599C187 217.797 190.325 212.886 193.545 206.87C199.359 196.009 202.15 185.834 203.4 170.931C203.642 168.057 203.542 165.003 202.874 154.713C202.137 143.359 202.025 140.596 202.02 133.643C202.016 127.282 202.157 124.013 202.63 119.507C205.256 94.4815 216.195 78.5925 235.932 71.1381C244.849 67.7692 256.12 66.0749 267.798 66.3478C278.338 66.5942 286.396 68.3158 294.226 71.9943C298.956 74.2168 302.786 76.8461 306.561 80.462C317.833 91.2603 324.172 108.084 326.001 132.06C326.501 138.615 326.604 142.907 326.602 157.16C326.601 174.274 326.665 175.203 328.304 181.617C330.573 190.502 334.99 198.916 342.888 209.399C345.843 213.322 351.201 219.906 355.156 224.476C373.423 245.581 385.571 265.125 392.099 283.912C398.678 302.843 399.402 321.058 394.222 337.348C393.837 338.558 393.491 339.659 393.452 339.793C393.402 339.967 393.724 340.169 394.561 340.492C396.286 341.158 399.169 343.054 400.771 344.577C403.965 347.614 405.931 351.515 407.646 358.219C408.023 359.694 408.752 362.55 409.267 364.567C410.737 370.336 411.995 373.482 413.643 375.512C414.049 376.013 415.137 377.258 416.059 378.278C428.522 392.061 429.655 402.139 419.613 409.886C416.457 412.321 413.643 413.847 402.655 419.082C398.075 421.264 393.41 423.544 392.288 424.149C384.207 428.504 379.317 432.225 374.092 437.994C363.897 449.252 352.456 456.106 340.041 458.395C338.042 458.763 337.199 458.827 333.739 458.871C330.897 458.907 329.283 458.855 328.143 458.689L328.144 458.683ZM335.864 453.711C342.706 453.094 349.705 450.536 356.598 446.133C361.708 442.869 365.621 439.428 371.343 433.165C375.978 428.091 381.348 424.046 389.059 419.82C391.585 418.436 393.785 417.368 405.8 411.698C413.931 407.861 417.597 405.408 419.594 402.468C421.937 399.018 421.26 394.608 417.49 388.773C415.858 386.246 413.751 383.628 409.895 379.331C407.364 376.512 405.753 372.92 404.184 366.598C401.679 356.509 401.179 354.879 399.719 352.059C398.13 348.991 395.841 346.818 392.629 345.327C389.71 343.972 388.808 343.82 383.221 343.738L378.402 343.668L376.678 345.306C371.133 350.576 363.188 354.811 356.089 356.282C353.59 356.8 349.489 356.802 347.622 356.285C344.628 355.456 342.717 354.402 340.486 352.348C336.447 348.63 333.661 342.71 332.77 335.958C332.616 334.792 332.47 333.81 332.444 333.778C332.324 333.623 330.03 335.026 328.772 336.023C325.777 338.398 323.496 341.883 321.865 346.575C319.667 352.899 318.5 360.876 317.685 375.155C317.095 385.488 316.751 387.094 311.396 404.575C307.81 416.279 306.526 422.652 306.505 428.86C306.488 433.769 307.145 436.53 309.154 440.001C312.233 445.319 316.399 449.273 321.193 451.428C325.645 453.429 330.541 454.19 335.864 453.71L335.864 453.711ZM192.644 449.144C198.043 448.582 203.009 446.966 206.783 444.543C208.421 443.491 211.079 440.943 212.174 439.373C213.885 436.922 215.063 434.136 215.792 430.817C216.255 428.707 216.43 424.857 216.141 423.139C215.382 418.626 212.292 412.486 207.415 405.798C205.356 402.974 202.824 399.814 197.358 393.247C189.312 383.583 186.68 380.07 184.351 375.889C183.852 374.993 179.968 368.172 175.721 360.731C167.223 345.845 167.023 345.539 163.448 342.007C160.5 339.095 158.012 337.283 155.367 336.123C151.712 334.52 147.438 334.023 144.2 334.826C140.329 335.786 136.954 338.559 132.208 344.677C127.088 351.277 126.062 352.494 124.15 354.232C121.271 356.849 118.574 358.212 111.776 360.484C104.323 362.974 102.137 364.095 99.6601 366.698C97.8271 368.624 96.5764 370.904 96.0841 373.218C95.3271 376.775 95.5133 379.338 97.3562 390.721C97.5731 392.061 97.7334 394.069 97.792 396.182C97.9084 400.377 97.7379 401.404 96.1562 406.043C94.2255 411.704 93.4926 415.496 93.6514 419C93.799 422.257 94.5217 424.209 96.2382 425.987C99.5721 429.441 104.862 430.969 118.326 432.367C132.939 433.885 138.708 434.839 145.603 436.878C149.361 437.989 151.198 438.716 156.65 441.25C159.407 442.532 162.757 443.994 164.093 444.499C170.467 446.91 176.7 448.452 182.529 449.062C185.098 449.331 190.434 449.375 192.644 449.144L192.644 449.144ZM259.051 418.829C274.503 417.855 289.713 412.657 304.202 403.402C305.389 402.643 306.429 401.937 306.514 401.832C306.715 401.582 309.422 392.423 310.28 389.091C311.68 383.655 311.852 382.359 312.416 372.955C313.572 353.692 315.81 344.1 320.843 336.847C322.172 334.931 325.336 331.842 327.177 330.664C328.432 329.86 332.089 328.056 332.47 328.053C332.565 328.052 332.78 327.197 332.948 326.152C333.478 322.861 334.43 320.52 336.037 318.559C339.869 313.881 347.373 313.1 357.535 316.319C363.09 318.079 370.665 321.678 374.917 324.577C376.715 325.803 379.724 328.686 380.458 329.886C381.851 332.164 382.303 334.632 381.775 337.074C381.623 337.778 381.499 338.386 381.499 338.424C381.499 338.463 382.244 338.473 383.156 338.448L384.813 338.401L385.092 337.342C386.863 330.636 383.522 324.814 374.617 319.089C371.354 316.99 364.764 313.545 361.659 312.313C361.027 312.062 360.446 311.805 360.368 311.742C360.291 311.679 360.385 310.928 360.579 310.072C364.919 290.86 357.045 267.061 339.755 247.127C337.688 244.744 332.164 239.281 331.668 239.13C331.49 239.076 331.151 239.154 330.911 239.305C330.006 239.874 330.705 241.043 333.738 244.03C337.621 247.853 339.723 250.372 342.785 254.869C353.607 270.764 357.794 288.133 354.37 302.926C353.958 304.703 352.753 308.526 352.476 308.932C352.374 309.081 351.833 309.028 350.222 308.713C349.031 308.48 347.138 308.252 345.899 308.192L343.696 308.085L343.467 306.944C340.453 291.906 334.607 276.46 325.86 260.429C319.67 249.085 315.851 241.069 309.697 226.508C304.1 213.262 298.009 196.07 295.333 185.964C295.233 185.583 295.096 185.273 295.029 185.275C294.963 185.277 294.7 185.56 294.447 185.904C293.67 186.958 291.632 188.965 290.276 190.011C286.652 192.806 282.897 194.743 277.828 196.43C275.547 197.189 273.633 198.119 270.722 199.881C264.196 203.831 261.012 205.472 257.839 206.519C253.678 207.892 249.137 208.459 245.057 208.117C241.118 207.786 238.437 207.075 235.34 205.54C232.901 204.331 231.106 203.062 227.472 199.976C223.511 196.612 222.524 195.866 220.25 194.515C219.226 193.907 217.789 193.009 217.057 192.521C215.566 191.526 215.462 191.547 215.457 192.85C215.453 193.93 214.856 198.712 214.421 201.162C213.165 208.23 211.451 214.572 208.496 223.085C204.586 234.351 200.099 244.744 191.151 263.262C184.19 277.668 182.82 280.716 180.756 286.393C176.443 298.251 173.696 311.339 173.2 322.387C173.136 323.799 173.034 324.954 172.973 324.954C172.911 324.954 172.317 324.166 171.651 323.202C163.103 310.819 162.028 295.237 168.46 276.946C170.083 272.333 171.558 269.034 174.472 263.507C175.913 260.773 178.059 256.702 179.241 254.461C181.626 249.94 182.824 247.22 182.824 246.33C182.824 245.144 182.354 245.6 180.407 248.675C171.662 262.481 166.224 273.155 162.679 283.473C157.794 297.691 157.284 309.959 161.161 320.007C163.217 325.334 166.127 329.632 170.587 333.931C173.467 336.706 175.641 338.396 179.132 340.574C180.521 341.441 183.415 343.263 185.563 344.624C203.455 355.96 215.005 368.456 217.172 378.822C217.47 380.251 217.43 383.021 217.093 384.283C216.335 387.113 214.526 389.209 211.696 390.537C209.642 391.501 207.851 391.938 205.471 392.058C204.419 392.111 203.559 392.199 203.56 392.253C203.561 392.307 204.258 393.194 205.109 394.225C207.833 397.524 211.613 402.42 213.344 404.891L215.024 407.289L216.982 408.471C220.983 410.886 225.013 412.867 228.882 414.317C236.152 417.044 242.339 418.335 250.806 418.893C252.679 419.016 256.558 418.986 259.051 418.829L259.051 418.829ZM250.975 205.084C256.177 204.411 259.846 202.959 266.356 199C271.844 195.663 274.036 194.534 276.553 193.749C288.018 190.174 296.039 182.153 295.149 175.153C294.788 172.313 292.795 169.68 289.465 167.644C287.766 166.605 283.727 164.984 278.167 163.111C272.418 161.174 270.88 160.516 267.412 158.509C259.955 154.194 254.355 152.306 248.341 152.078C244.448 151.931 241.212 152.484 237.681 153.902C234.222 155.291 231.061 157.401 226.99 161.038C225.109 162.718 222.976 164.372 219.682 166.703C213.12 171.346 212.286 171.991 211.455 173.075C208.07 177.485 210.187 183.605 216.882 188.758C218.439 189.955 219.45 190.617 222.423 192.381C224.382 193.544 226.539 195.182 229.474 197.738C234.448 202.068 237.095 203.607 241.28 204.604C244.259 205.314 247.831 205.491 250.975 205.084V205.084ZM241.968 193.744C238.102 193.291 234.708 192.321 231.176 190.658C227.424 188.892 224.171 186.751 220.437 183.591C216.668 180.401 215.191 178.923 214.883 178.032C214.34 176.46 214.683 175.191 215.591 175.41C216.379 175.6 216.901 176.099 217.582 177.314C218.315 178.622 219.631 179.947 222.843 182.611C228.694 187.464 233.565 190.003 239.588 191.338C240.973 191.645 241.711 191.697 244.772 191.701C248.015 191.705 248.535 191.665 250.465 191.267C254.454 190.445 259.091 188.803 263.807 186.543C269.154 183.98 271.398 182.636 277.063 178.607C280.669 176.043 280.955 175.798 282.261 174.163C283.338 172.815 284.006 172.44 284.967 172.642C287.104 173.092 284.497 176.233 278.252 180.733C274.415 183.497 272.032 184.871 266.288 187.631C260.349 190.485 257.646 191.556 253.694 192.623C249.914 193.643 245.066 194.107 241.968 193.744V193.744ZM235.805 161.858C234.684 161.412 234.76 160.378 235.97 159.618C236.324 159.396 237.226 159.018 237.974 158.778C239.075 158.426 239.539 158.359 240.416 158.426C241.533 158.511 242.342 158.902 242.445 159.406C242.534 159.838 241.878 160.297 240.888 160.494C240.302 160.61 239.516 160.953 238.799 161.405C237.529 162.205 236.912 162.298 235.805 161.858H235.805ZM255.661 161.457C255.099 161.072 254.275 160.685 253.722 160.549C252.451 160.235 251.994 159.938 251.994 159.428C251.994 159.101 252.144 158.951 252.717 158.701C254.025 158.132 256.033 158.395 257.982 159.391C259.642 160.239 259.891 161.352 258.542 161.893C257.489 162.315 256.745 162.202 255.661 161.457L255.661 161.457ZM220.765 162.245C221.863 161.448 222.803 160.731 222.854 160.652C222.904 160.574 222.63 160.236 222.245 159.902C219.6 157.61 217.966 152.693 218.227 147.804C218.751 137.968 225.941 135.235 229.938 143.351C231.061 145.631 231.456 147.422 231.556 150.679C231.604 152.225 231.67 153.49 231.704 153.49C231.737 153.49 232.129 153.276 232.575 153.013C233.866 152.252 236.134 151.255 237.973 150.641L239.673 150.073L239.662 146.851C239.651 143.274 239.384 141.226 238.567 138.438C236.553 131.568 232.368 126.465 227.451 124.885C225.93 124.396 223.532 124.284 221.998 124.63C219.656 125.159 217.002 126.995 215.112 129.393C213.162 131.867 211.507 135.793 210.761 139.718C210.291 142.19 210.333 147.972 210.84 150.63C211.831 155.829 213.977 160.442 216.815 163.475L217.693 164.413L218.231 164.054C218.526 163.857 219.667 163.043 220.765 162.245L220.765 162.245ZM289.731 162.74C293.599 157.471 295.465 150.759 294.984 143.847C294.667 139.289 293.828 136.259 291.759 132.194C289.392 127.544 286.1 124.234 281.82 122.2C279.251 120.979 277.773 120.66 274.682 120.66C270.966 120.66 268.555 121.333 265.573 123.202C263.591 124.444 260.573 127.303 259.323 129.123C257.263 132.122 255.543 136.272 254.86 139.891C254.564 141.46 254.49 142.514 254.475 145.34C254.465 147.268 254.516 149.108 254.588 149.43C254.711 149.986 254.769 150.027 255.692 150.222C257.416 150.586 261.372 151.817 263.267 152.578L265.108 153.318L264.981 152.63C264.765 151.463 264.856 147.782 265.139 146.237C265.486 144.341 265.944 143 266.867 141.184C268.16 138.64 270.043 136.817 272.176 136.046C273.573 135.541 275.676 135.638 277.023 136.27C281.275 138.265 283.904 144.778 283.107 151.339C282.662 155.007 281.852 156.939 279.967 158.831L278.672 160.132L279.141 160.301C279.399 160.394 280.784 160.885 282.219 161.392C283.653 161.899 285.68 162.668 286.722 163.101C287.765 163.534 288.673 163.896 288.741 163.905C288.809 163.914 289.254 163.39 289.732 162.74L289.731 162.74Z" fill="black"/>
<path d="M244.404 417.545C227.359 414.651 216.973 409.06 209.211 398.602C205.074 393.027 204.908 392.461 207.415 392.461C208.933 392.461 211.892 391.044 213.991 389.313C224.698 380.48 212.406 361.297 184.381 343.101C164.796 330.385 158.428 319.602 159.829 301.528C160.511 292.728 165.72 274.019 167.115 275.357C167.398 275.628 166.653 280.263 165.461 285.658C162.737 297.98 163.724 308.603 168.506 318.447C172.771 327.226 173.454 326.387 175.736 309.578C177.531 296.354 182.121 283.635 194.877 256.538C206.197 232.493 211.182 219.059 214.387 203.965L216.724 192.96L225.579 199.469C236.108 207.209 242.889 209.633 251.021 208.563C257.269 207.742 287.569 193.478 292.076 189.236C294.655 186.81 294.809 187.072 300.491 203.507C308.173 225.722 310.316 230.711 323.891 257.965C330.457 271.146 337.002 286.532 339.047 293.596C341.027 300.433 342.888 306.77 343.182 307.677C343.477 308.587 345.886 309.327 348.549 309.327C352.648 309.327 353.543 308.775 354.441 305.698C356.573 298.385 355.417 280.017 352.307 271.81C348.526 261.831 349.624 260.497 353.909 269.864C358.848 280.663 360.88 290.385 360.669 302.21L360.478 312.908L367.158 315.908C379.222 321.327 387.075 330.874 384.267 336.707C383.385 338.538 383.052 338.144 382.662 334.811C381.755 327.053 367.709 317.701 352.161 314.503C346.183 313.273 344.44 313.414 340.02 315.486C336.619 317.079 334.39 319.264 333.483 321.889C332.726 324.081 328.912 328.831 325.006 332.446C316.367 340.443 314.236 346.546 312.113 369.371C310.479 386.951 307.255 400.171 303.984 402.712C299.665 406.067 279.633 414.667 272.938 416.04C262.401 418.201 251.603 418.772 244.404 417.55L244.404 417.545Z" fill="#FFB046" stroke="black" stroke-width="4.07106"/>
<path d="M323.668 451.805C317.895 450.095 309.901 441.37 308.042 434.747C306.275 428.454 307.546 420.251 313.573 399.057C315.853 391.037 318.122 378.529 318.958 369.364C320.682 350.465 322.117 345.024 326.777 339.713C330.868 335.05 332.794 334.632 332.794 338.405C332.794 342.429 337.728 350.927 341.885 354.063C348.91 359.363 363.245 356.826 373.585 348.454C377.02 345.673 379.345 344.951 384.861 344.951C395.124 344.951 398.077 348.006 402.719 363.427C405.489 372.63 408.011 377.894 412.204 383.221C424.722 399.125 423.592 401.95 400.035 413.665C386.151 420.568 380.97 424.053 370.329 433.643C363.24 440.032 354.256 446.807 350.363 448.699C342.549 452.496 330.67 453.879 323.669 451.805L323.668 451.805Z" fill="#FFBC00" stroke="black" stroke-width="4.07106"/>
<path d="M178.799 447.76C174.701 447.081 165.413 444.085 158.159 441.101C145.597 435.934 141.786 435.083 110.948 430.546C98.6775 428.74 94.7446 425.77 94.7446 418.308C94.7446 415.21 95.6753 409.76 96.8129 406.197C98.5492 400.758 98.6279 397.673 97.3028 386.97C95.2044 370.019 96.7448 367.17 111.111 361.423C122.109 357.023 123.65 355.861 134.387 343.873C141.071 336.41 142.159 335.716 147.183 335.716C158.56 335.716 162.71 339.634 176.276 363.189C181.826 372.825 191.182 386.636 197.066 393.879C209.484 409.165 215.835 420.023 215.835 425.967C215.835 428.28 214.442 432.822 212.739 436.06C207.461 446.097 194.9 450.428 178.8 447.76H178.799Z" fill="#FFBC00" stroke="black" stroke-width="4.07106"/>
<path d="M244.184 204.995C239.82 204.445 233.774 201.256 228.252 196.594C226.713 195.294 223.906 193.247 222.015 192.044C215.46 187.877 213.087 185.667 211.148 181.927C210.178 180.055 210.13 179.862 210.13 177.845C210.13 175.404 210.577 174.2 212.074 172.611C212.571 172.084 215.511 169.828 218.608 167.599C221.704 165.369 225.497 162.466 227.035 161.147C232.032 156.864 234.988 154.972 238.729 153.663C241.745 152.607 243.737 152.283 247.209 152.283C253.808 152.283 258.291 153.674 267.05 158.439C271.142 160.665 272.638 161.289 281.158 164.318C289.787 167.386 292.511 169.169 294.344 172.945C295.235 174.782 295.265 177.56 294.417 179.694C293.735 181.407 292.202 183.718 290.67 185.341C287.849 188.331 282.242 191.656 276.913 193.498C274.274 194.411 271.24 195.91 267.603 198.098C265.129 199.587 259.101 202.259 254.401 203.952C251.01 205.172 248.016 205.478 244.184 204.995L244.184 204.995ZM247.609 193.785C253.145 193.253 257.533 191.851 265.474 188.079C271.924 185.015 274.533 183.535 278.33 180.788C284.934 176.01 287.526 172.578 284.531 172.578C283.86 172.578 283.49 172.756 282.897 173.363C282.476 173.795 281.617 174.678 280.988 175.324C279.611 176.74 272.955 181.427 269.384 183.496C264.017 186.605 257.046 189.519 251.974 190.773C249.342 191.423 248.828 191.474 244.837 191.473C240.004 191.473 238.07 191.12 234.12 189.519C228.428 187.212 220.331 181.152 217.649 177.191C216.585 175.62 215.847 175.148 214.966 175.472C214.647 175.589 214.591 175.878 214.674 176.976C214.802 178.668 215.449 179.481 219.279 182.756C225.805 188.335 231.463 191.522 237.477 193.008C241.555 194.016 243.584 194.171 247.609 193.784L247.609 193.785ZM238.757 161.528C239.607 161.095 240.644 160.669 241.063 160.581C241.977 160.389 242.67 159.719 242.47 159.219C241.86 157.694 236.649 158.421 235.256 160.226C234.679 160.975 234.891 161.564 235.89 161.981C236.945 162.421 237.027 162.408 238.757 161.528L238.757 161.528ZM258.544 161.976C259.231 161.7 259.388 161.513 259.388 160.962C259.388 160.187 258.978 159.782 257.449 159.044C256.194 158.438 253.748 158.184 252.753 158.555C251.339 159.083 251.771 160.142 253.614 160.671C254.181 160.834 254.934 161.164 255.288 161.405C256.655 162.337 257.341 162.458 258.544 161.976V161.976Z" fill="#FF942A" stroke="black" stroke-width="0.719667"/>
<path d="M234.483 410.92C225.186 407.782 216.084 402.019 213.711 397.767C212.597 395.771 213.125 394.663 216.482 391.954C227.892 382.747 219.719 364.198 196.762 347.197C190.882 342.842 182.977 336.997 179.196 334.208L172.321 329.138L175.07 326.29C176.906 324.387 178.362 319.952 179.46 312.914C181.766 298.126 185.063 288.529 196.925 262.077C209.415 234.227 214.048 222.262 217.224 209.653L219.625 200.12L223.958 203.234C232.614 209.455 240.392 212.418 247.896 212.354C253.947 212.302 258.121 210.874 273.669 203.532C283.873 198.714 292.543 194.772 292.937 194.772C293.33 194.772 293.652 195.375 293.652 196.113C293.652 199.682 307.33 232.939 317.905 255.082C324.421 268.725 332.055 286.672 334.869 294.963L339.987 310.038L334.364 315.644C320.923 329.045 313.948 338.516 311.467 346.734C310.734 349.162 309.199 358.869 308.057 368.304C306.914 377.74 305.039 388.6 303.89 392.439C301.471 400.52 299.024 402.34 281.956 408.756C272.879 412.168 268.534 412.985 257.188 413.413C245.477 413.854 242.095 413.482 234.483 410.913L234.483 410.92Z" fill="url(#paint0_linear)" stroke="black" stroke-width="4.07106"/>
</g>
<g clip-path="url(#clip1)">
<path d="M154.648 385H69.3516C63.6346 385 59 389.635 59 395.352V480.648C59 486.365 63.6346 491 69.3516 491H154.648C160.365 491 165 486.365 165 480.648V395.352C165 389.635 160.365 385 154.648 385Z" fill="#772953"/>
<path d="M120 446.26L72.5902 466.28L68.9602 455.39L105.81 440.65L68.9602 425.91L72.5902 415.02L120 435.04V446.26Z" fill="white"/>
<path d="M112 457.544H145V464.21H112V457.544Z" fill="white"/>
</g>
<defs>
<linearGradient id="paint0_linear" x1="277.962" y1="273.823" x2="272.27" y2="448.033" gradientUnits="userSpaceOnUse">
<stop stop-color="white"/>
<stop offset="1" stop-color="white"/>
</linearGradient>
<clipPath id="clip0">
<rect width="432.071" height="445.383" fill="white" transform="translate(40 46)"/>
</clipPath>
<clipPath id="clip1">
<rect x="59" y="385" width="106" height="106" rx="2" fill="white"/>
</clipPath>
</defs>
</svg>
